<svg xmlns="http://www.w3.org/2000/svg" xmlns:xlink="http://www.w3.org/1999/xlink" viewBox="0 0 699.42 676.56"><defs><style>.cls-1{opacity:0.54;}.cls-2{fill:url(#linear-gradient);}.cls-3{fill:url(#linear-gradient-2);}.cls-4{fill:url(#linear-gradient-3);}.cls-5{fill:url(#linear-gradient-4);}.cls-6{fill:url(#linear-gradient-5);}.cls-7{fill:url(#linear-gradient-6);}.cls-8{fill:url(#linear-gradient-7);}.cls-9{fill:url(#linear-gradient-8);}.cls-10{fill:url(#linear-gradient-9);}</style><linearGradient id="linear-gradient" x1="347.41" y1="118.15" x2="349.66" y2="647.48" gradientUnits="userSpaceOnUse"><stop offset="0" stop-color="#fff33b"/><stop offset="0.04" stop-color="#fee72e"/><stop offset="0.12" stop-color="#fed51b"/><stop offset="0.2" stop-color="#fdca10"/><stop offset="0.28" stop-color="#fdc70c"/><stop offset="0.67" stop-color="#f3903f"/><stop offset="0.89" stop-color="#ed683c"/><stop offset="1" stop-color="#ed1c24" stop-opacity="0.9"/></linearGradient><linearGradient id="linear-gradient-2" x1="532.64" y1="190.88" x2="570.99" y2="190.88" xlink:href="#linear-gradient"/><linearGradient id="linear-gradient-3" x1="95.41" y1="491.72" x2="176.46" y2="491.72" xlink:href="#linear-gradient"/><linearGradient id="linear-gradient-4" x1="567.15" y1="571.26" x2="642.28" y2="571.26" xlink:href="#linear-gradient"/><linearGradient id="linear-gradient-5" x1="316.28" y1="452.56" x2="395.83" y2="452.56" xlink:href="#linear-gradient"/><linearGradient id="linear-gradient-6" x1="452.17" y1="451.23" x2="518.1" y2="451.23" xlink:href="#linear-gradient"/><linearGradient id="linear-gradient-7" x1="177.58" y1="373.84" x2="221.23" y2="373.84" xlink:href="#linear-gradient"/><linearGradient id="linear-gradient-8" x1="309.71" y1="299.93" x2="345.92" y2="299.93" xlink:href="#linear-gradient"/><linearGradient id="linear-gradient-9" x1="383.69" y1="568.74" x2="488.35" y2="568.74" xlink:href="#linear-gradient"/></defs><title>Asset 7</title><g id="Layer_2" data-name="Layer 2"><g id="Layer_3" data-name="Layer 3"><g class="cls-1"><path class="cls-2" d="M0,658.72c-.77-7.2,17.26-36,41.68-53.88,6.66-4.87,14.18-9.19,21.39-19.14,2-2.72,14.48-20,12.39-38.3C73,525.81,50.68,506.2,20.3,501.23c3.31-35.85,15.89-55.86,27-67.58,15.23-16,36.52-25.72,67.57-56.31,6.21-6.11,16-16.18,13.52-25.9-1.39-5.49-6.36-9.61-11.27-11.26-7.33-2.47-15.87.16-21.4,6.75,19.06-13.24,23.93-25.21,24.78-33.78,1.65-16.66-11.44-24.73-25.9-59.69-7.28-17.58-10.91-26.37-11.26-36-1.14-31.32,22-56.59,38.29-74.33,13.92-15.2,28.27-28.8,30.41-27,2.91,2.4-25.95,25.84-28.16,61.94-.32,5.27-1.84,39.71,18,65.32,5.48,7.07,14.27,15.62,16.89,30.41,1.89,10.64-.42,18.79,1.13,19.14,2.1.48,9.83-13.74,10.14-29.28.38-19.59-11.29-29-16.9-42.79-16.88-41.5,30.11-100.44,36-98,4.85,2-22.36,43.06-6.76,87.85,1.27,3.62,17.86,49.17,54.06,51.81,22,1.6,47.78-13,51.81-32.66,3.45-16.83-9.87-32.94-18-42.8-15.64-18.93-25.63-15.7-37.16-34.91-5.31-8.85-5.49-13.37-14.65-28.16-8.55-13.83-10.81-13.8-12.38-19.15-6.88-23.41,28.09-52.73,29.28-51.8.9.69-17.78,18.37-12.39,32.66,1.72,4.55,6.34,10,12.39,10.13,5.75.15,10.61-4.54,12.39-9,2.32-5.82-.7-11,0-11.26,1.34-.48,14.74,17.93,9,32.66-3,7.78-8.59,7.33-10.14,13.52-2.38,9.54,8.74,19,28.16,38.29,18.46,18.35,27.69,27.53,32.66,34.91,7,10.47,15.13,27.64,15.76,55.19,3.53.93,24.57,6.12,43.93-6.76,2.65-1.76,16.64-11.07,20.27-27,4.69-20.61-9.45-45.5-36-58.56,2.93-25.59,12.16-39.39,20.27-47.31,7.75-7.56,12-7.32,20.28-16.89,4.35-5,19.55-22.59,15.76-40.54-2.23-10.62-8.77-10.3-12.39-23.65S394.16,1.09,398.71.05c1.68-.38,3.7,1.13,10.14,10.14,11,15.45,16.51,23.23,18,29.28,3.7,14.85-5.92,20.33-19.15,63.07-3.68,11.89-5.51,17.83-5.63,22.53-.62,25.68,23.14,46.42,40.55,58.56A179.56,179.56,0,0,1,437,148.72c-.74-12.21-.65-31.16,2.26-31.54,3.2-.41,2.75,22.66,18,46.18,15.07,23.21,28.6,20.88,34.91,38.29,8.19,22.58-12.49,32.27-7.88,58.56,3.21,18.38,19,32.9,50.68,62,24,22,28.1,20.93,32.66,31.53,10.58,24.58-.76,55.64-6.76,72.08-8.23,22.55-14.79,26-13.51,39.42,1.55,16.39,13.31,32.42,29.28,39.42,8.21,3.6,22.89,7.16,25.9,2.25,4.62-7.51-26.14-21.78-32.66-51.81-6.12-28.18,12.24-56,21.4-69.82,13.27-20.09,18.79-17.08,36-42.8,10.51-15.68,19.87-30,21.4-49.56,1.62-20.78-6.56-35.24-4.51-36,2.5-1,19.32,18.48,20.28,42.79.43,11.25-2.63,20.93-36,76.59-17,28.25-25.91,42-21.4,57.43.62,2.13,4.15,14.25,14.64,18,10.95,3.94,21.64-4,23.65-5.63,10.94-8.61,12.1-22.41,12.39-25.9,1.28-15.32-6.89-18.27-5.63-32.66,1-11.42,7-19.47,13.51-28.16,11.15-14.9,26.18-25.5,28.16-23.65s-13.29,13.23-18,34.92c-3.79,17.36,3.46,21.86,2.25,45-.48,9.19-3.7,20.39-10.14,42.8C657,496.27,653.32,499,655.5,509.11c3.78,17.57,16.28,15.48,24.77,38.29,2,5.44,11.34,30.46,0,48.43C674.11,605.6,665,608.29,665.63,615c.54,5.8,8.72,6.84,16.89,13.51,6.15,5,13.18,13.79,16.9,30.23C136.89,687.58,2,676.82,0,658.72Z"/><path class="cls-3" d="M562,269.22c-3.38,1.58-38.68-39.55-27-68.7,3.53-8.83,11-15.69,16.89-34.91,2.36-7.73,3.82-12.68,3.38-19.15-1.41-20.63-20.49-32.24-19.15-33.78,1.5-1.72,28.07,9.18,33.79,31.53,3.05,11.91-.75,23.46-5.63,38.29-4.39,13.36-7.3,15.45-10.14,23.65C543.27,237.58,564.85,267.9,562,269.22Z"/><path class="cls-4" d="M130.67,565.42c2.93,5.21,25.37,3.94,37.16-9C181,542,175.39,519,174.59,515.87c-8-30.62-36.58-31.17-45.05-61.94-5.64-20.51,2.93-35.31-3.38-38.3-7.13-3.37-27.63,11.1-30.41,29.29-3.69,24.2,23.28,59.51,39.42,74.33,2.93,2.69,11.46,10.17,10.14,18-.63,3.77-3.06,4.82-7.88,12.39S129.12,562.68,130.67,565.42Z"/><path class="cls-5" d="M575.53,606c-.52,4.42,19.39,15.48,38.29,10.14,13.95-3.94,26.11-16.45,28.16-30.41,3.69-25.19-27.31-43-48.43-55.19-7.95-4.58-14.31-7-19.14-4.5-6.85,3.59-8.15,15.94-6.76,24.77,4.1,26.06,33.93,36.38,30.41,46.18C595.32,604.58,576,601.72,575.53,606Z"/><path class="cls-6" d="M322.13,565.42c-7.12-6.89-5.83-18.68-5.63-20.27,2.27-18.48,20.83-21.21,33.78-42.79,11-18.23,10.32-37.28,10.14-42.8-1-29.31-18.3-35.41-20.27-59.69-2.93-36.15,31.88-67.56,36-65.32s-24.61,37.39-11.26,68.7c6.35,14.9,19,21.39,20.27,40.54.64,10-2.63,10.91-2.25,22.53.63,19.45,10,24.25,12.38,39.41,3,19.17-7.65,40.21-22.52,51.81C358.2,568.94,333.18,576.14,322.13,565.42Z"/><path class="cls-7" d="M495.57,378.47c-4.91.8-2.88,12.71-11.26,31.53-9.83,22.07-19.89,22-27,38.3-10,22.68-5.48,57.1,14.64,69.82,11.73,7.42,30.13,8.33,37.16,0,6.81-8.06-2.76-18-2.25-41.67.54-24.91,11.45-27.56,11.26-49.55C517.88,401.21,502.77,377.29,495.57,378.47Z"/><path class="cls-8" d="M180.22,406.63c-5-2.52-2.39-19.89,3.38-32.67,9.45-20.91,30.59-36.45,36-32.66,5.16,3.6-3.22,24.95-11.26,38.3S185.84,409.46,180.22,406.63Z"/><path class="cls-9" d="M341.27,268.1c-6.12-3.31-16.22,5.07-16.89,5.63-18.89,16-17.25,55.34-7.88,58.56,7.8,2.68,24.14-18.63,28.15-39.42C345.14,290.35,348.66,272.09,341.27,268.1Z"/><path class="cls-10" d="M441.51,658.72c8.85-8.18,3.31-16.51,12.39-33.6,12.42-23.4,29.69-20.77,33.79-36,4.62-17.26-15.94-26.12-34.92-66.45-14.2-30.18-15.45-52.32-19.14-51.81s-6.46,22.74-1.13,45.05c5.61,23.49,15.17,25.92,14.64,40.54-.43,11.7-6.79,17-31.53,47.31-32,39.21-32.94,44.42-31.54,48.43C389.08,666.45,426.11,673,441.51,658.72Z"/></g></g></g></svg>